<mxfile host="Electron" modified="2024-07-21T19:34:07.961Z" agent="Mozilla/5.0 (Macintosh; Intel Mac OS X 10_15_7) AppleWebKit/537.36 (KHTML, like Gecko) draw.io/24.6.4 Chrome/124.0.6367.207 Electron/30.0.6 Safari/537.36" etag="3Vvakcd299kKnxe_kK-t" version="24.6.4" type="device">
  <diagram name="Page-1" id="yXuvJgtH6QPZDnH7URkE">
    <mxGraphModel dx="1692" dy="1102" grid="1" gridSize="10" guides="1" tooltips="1" connect="1" arrows="1" fold="1" page="1" pageScale="1" pageWidth="1600" pageHeight="1200" math="0" shadow="0">
      <root>
        <mxCell id="0" />
        <mxCell id="1" parent="0" />
        <mxCell id="zZAwamqaLNWORr6iWZXO-54" value="" style="rounded=0;whiteSpace=wrap;html=1;align=center;verticalAlign=middle;spacingLeft=10;spacingRight=10;spacingTop=10;spacingBottom=10;fontFamily=Helvetica;fontSize=12;strokeWidth=3;strokeColor=#83b367;" vertex="1" parent="1">
          <mxGeometry x="910" y="673.75" width="650" height="270" as="geometry" />
        </mxCell>
        <mxCell id="KBQtOnZJJO23YoY9Fe5M-16" value="" style="rounded=0;whiteSpace=wrap;html=1;strokeColor=default;align=center;verticalAlign=middle;spacingLeft=10;spacingRight=10;spacingTop=10;spacingBottom=10;fontFamily=Helvetica;fontSize=12;fontColor=default;fillColor=default;strokeWidth=1;" parent="1" vertex="1">
          <mxGeometry x="80" y="290" width="440" height="210" as="geometry" />
        </mxCell>
        <mxCell id="zZAwamqaLNWORr6iWZXO-48" style="rounded=0;orthogonalLoop=1;jettySize=auto;html=1;exitX=0.5;exitY=1;exitDx=0;exitDy=0;entryX=0.5;entryY=0;entryDx=0;entryDy=0;" edge="1" parent="1" source="zZAwamqaLNWORr6iWZXO-45" target="KBQtOnZJJO23YoY9Fe5M-16">
          <mxGeometry relative="1" as="geometry" />
        </mxCell>
        <mxCell id="zZAwamqaLNWORr6iWZXO-45" value="" style="rounded=0;whiteSpace=wrap;html=1;" vertex="1" parent="1">
          <mxGeometry x="82.5" y="30" width="437.5" height="230" as="geometry" />
        </mxCell>
        <mxCell id="zZAwamqaLNWORr6iWZXO-28" value="" style="rounded=0;whiteSpace=wrap;html=1;strokeWidth=2;" vertex="1" parent="1">
          <mxGeometry x="700" y="1371.25" width="160" height="160" as="geometry" />
        </mxCell>
        <mxCell id="zZAwamqaLNWORr6iWZXO-24" value="" style="rounded=0;whiteSpace=wrap;html=1;" vertex="1" parent="1">
          <mxGeometry x="175" y="1386.25" width="480" height="203.75" as="geometry" />
        </mxCell>
        <mxCell id="KBQtOnZJJO23YoY9Fe5M-14" style="rounded=0;orthogonalLoop=1;jettySize=auto;html=1;fontFamily=Helvetica;fontSize=12;fontColor=default;entryX=0.5;entryY=0;entryDx=0;entryDy=0;" parent="1" source="KBQtOnZJJO23YoY9Fe5M-16" target="KBQtOnZJJO23YoY9Fe5M-17" edge="1">
          <mxGeometry relative="1" as="geometry">
            <mxPoint x="274" y="480" as="sourcePoint" />
          </mxGeometry>
        </mxCell>
        <mxCell id="KBQtOnZJJO23YoY9Fe5M-1" value="Group Mission Performer" style="rounded=0;whiteSpace=wrap;html=1;strokeWidth=3;" parent="1" vertex="1">
          <mxGeometry x="110" y="360" width="120" height="60" as="geometry" />
        </mxCell>
        <mxCell id="KBQtOnZJJO23YoY9Fe5M-2" value="Perform Missions with Groups of Vehicles" style="ellipse;whiteSpace=wrap;html=1;spacingLeft=10;spacingBottom=10;spacingRight=10;spacingTop=10;strokeWidth=3;" parent="1" vertex="1">
          <mxGeometry x="280" y="40" width="200" height="80" as="geometry" />
        </mxCell>
        <mxCell id="KBQtOnZJJO23YoY9Fe5M-8" value="Zones Vehicles *Should* Stay Inside and Outside" style="ellipse;whiteSpace=wrap;html=1;spacingLeft=10;spacingBottom=10;spacingRight=10;spacingTop=10;strokeWidth=3;" parent="1" vertex="1">
          <mxGeometry x="280" y="130" width="200" height="80" as="geometry" />
        </mxCell>
        <mxCell id="KBQtOnZJJO23YoY9Fe5M-10" style="rounded=0;orthogonalLoop=1;jettySize=auto;html=1;exitX=0;exitY=0.5;exitDx=0;exitDy=0;fontFamily=Helvetica;fontSize=12;fontColor=default;dashed=1;entryX=1;entryY=0.75;entryDx=0;entryDy=0;endArrow=none;endFill=0;" parent="1" source="KBQtOnZJJO23YoY9Fe5M-9" target="KBQtOnZJJO23YoY9Fe5M-1" edge="1">
          <mxGeometry relative="1" as="geometry" />
        </mxCell>
        <mxCell id="KBQtOnZJJO23YoY9Fe5M-9" value="The Group Mission Performer Shall Control Groups of vehicles to work together to accomplish missions." style="ellipse;whiteSpace=wrap;html=1;spacingLeft=10;spacingBottom=10;spacingRight=10;spacingTop=10;dashed=1;" parent="1" vertex="1">
          <mxGeometry x="280" y="300" width="220" height="90" as="geometry" />
        </mxCell>
        <mxCell id="KBQtOnZJJO23YoY9Fe5M-11" value="Vehicles shall stay inside at least one keep-in zone and outside all keep-out zone to the extent&lt;div&gt;reasonably practicable.&lt;/div&gt;" style="ellipse;whiteSpace=wrap;html=1;spacingLeft=10;spacingBottom=10;spacingRight=10;spacingTop=10;dashed=1;" parent="1" vertex="1">
          <mxGeometry x="280" y="390" width="220" height="90" as="geometry" />
        </mxCell>
        <mxCell id="KBQtOnZJJO23YoY9Fe5M-12" style="rounded=0;orthogonalLoop=1;jettySize=auto;html=1;exitX=0;exitY=0.5;exitDx=0;exitDy=0;fontFamily=Helvetica;fontSize=12;fontColor=default;dashed=1;entryX=1;entryY=0.5;entryDx=0;entryDy=0;endArrow=none;endFill=0;" parent="1" source="KBQtOnZJJO23YoY9Fe5M-11" target="KBQtOnZJJO23YoY9Fe5M-1" edge="1">
          <mxGeometry relative="1" as="geometry">
            <mxPoint x="50" y="380" as="sourcePoint" />
            <mxPoint x="120" y="385" as="targetPoint" />
          </mxGeometry>
        </mxCell>
        <mxCell id="KBQtOnZJJO23YoY9Fe5M-17" value="&lt;b&gt;OpenUXAS&lt;/b&gt;" style="shape=internalStorage;whiteSpace=wrap;html=1;backgroundOutline=1;strokeColor=default;align=center;verticalAlign=middle;spacingLeft=10;spacingRight=10;spacingTop=10;spacingBottom=10;fontFamily=Helvetica;fontSize=12;fontColor=default;fillColor=default;dx=20;dy=0;strokeWidth=3;" parent="1" vertex="1">
          <mxGeometry x="225" y="540" width="145" height="80" as="geometry" />
        </mxCell>
        <mxCell id="KBQtOnZJJO23YoY9Fe5M-18" value="" style="rounded=0;whiteSpace=wrap;html=1;strokeColor=default;align=left;verticalAlign=middle;spacingLeft=10;spacingRight=10;spacingTop=10;spacingBottom=10;fontFamily=Helvetica;fontSize=12;fontColor=default;fillColor=default;strokeWidth=2;" parent="1" vertex="1">
          <mxGeometry x="75" y="670" width="575" height="460" as="geometry" />
        </mxCell>
        <mxCell id="KBQtOnZJJO23YoY9Fe5M-19" value="OpenUxAS Service&lt;div&gt;Host&lt;/div&gt;" style="rounded=0;whiteSpace=wrap;html=1;strokeWidth=3;" parent="1" vertex="1">
          <mxGeometry x="85" y="880" width="130" height="70" as="geometry" />
        </mxCell>
        <mxCell id="KBQtOnZJJO23YoY9Fe5M-26" value="Mission&amp;nbsp;&lt;span style=&quot;background-color: initial;&quot;&gt;Planner&lt;/span&gt;&lt;div&gt;&lt;span style=&quot;background-color: initial;&quot;&gt;Service&lt;/span&gt;&lt;/div&gt;" style="rounded=0;whiteSpace=wrap;html=1;strokeWidth=3;" parent="1" vertex="1">
          <mxGeometry x="240" y="950" width="130" height="70" as="geometry" />
        </mxCell>
        <mxCell id="zZAwamqaLNWORr6iWZXO-94" style="rounded=0;orthogonalLoop=1;jettySize=auto;html=1;exitX=0;exitY=0.5;exitDx=0;exitDy=0;entryX=1;entryY=0.5;entryDx=0;entryDy=0;endArrow=none;endFill=0;" edge="1" parent="1" source="KBQtOnZJJO23YoY9Fe5M-27" target="zZAwamqaLNWORr6iWZXO-92">
          <mxGeometry relative="1" as="geometry" />
        </mxCell>
        <mxCell id="zZAwamqaLNWORr6iWZXO-95" style="rounded=0;orthogonalLoop=1;jettySize=auto;html=1;exitX=0;exitY=0.75;exitDx=0;exitDy=0;entryX=1;entryY=0.5;entryDx=0;entryDy=0;endArrow=none;endFill=0;" edge="1" parent="1" source="KBQtOnZJJO23YoY9Fe5M-27" target="zZAwamqaLNWORr6iWZXO-93">
          <mxGeometry relative="1" as="geometry" />
        </mxCell>
        <mxCell id="KBQtOnZJJO23YoY9Fe5M-27" value="Imminent and Occurring Zone Violation Monitor Service" style="rounded=0;whiteSpace=wrap;html=1;strokeWidth=3;fillColor=#dae8fc;strokeColor=#000000;spacingLeft=10;spacingRight=10;spacingBottom=10;spacingTop=10;spacing=10;" parent="1" vertex="1">
          <mxGeometry x="240" y="690" width="130" height="70" as="geometry" />
        </mxCell>
        <mxCell id="KBQtOnZJJO23YoY9Fe5M-28" style="rounded=0;orthogonalLoop=1;jettySize=auto;html=1;exitX=0.5;exitY=1;exitDx=0;exitDy=0;entryX=0.385;entryY=0;entryDx=0;entryDy=0;fontFamily=Helvetica;fontSize=12;fontColor=default;endArrow=none;endFill=0;shadow=0;flowAnimation=0;strokeWidth=10.999999999999998;entryPerimeter=0;" parent="1" source="KBQtOnZJJO23YoY9Fe5M-17" target="KBQtOnZJJO23YoY9Fe5M-18" edge="1">
          <mxGeometry relative="1" as="geometry">
            <mxPoint x="270" y="770" as="sourcePoint" />
          </mxGeometry>
        </mxCell>
        <mxCell id="KBQtOnZJJO23YoY9Fe5M-31" value="" style="rounded=0;whiteSpace=wrap;html=1;strokeWidth=2;" parent="1" vertex="1">
          <mxGeometry x="75" y="1200" width="765" height="140" as="geometry" />
        </mxCell>
        <mxCell id="KBQtOnZJJO23YoY9Fe5M-33" value="Zone-Aware&lt;div&gt;Routes Planner&lt;/div&gt;" style="rounded=0;whiteSpace=wrap;html=1;strokeWidth=4;" parent="1" vertex="1">
          <mxGeometry x="95" y="1220" width="120" height="60" as="geometry" />
        </mxCell>
        <mxCell id="KBQtOnZJJO23YoY9Fe5M-34" style="rounded=0;orthogonalLoop=1;jettySize=auto;html=1;exitX=1;exitY=0.5;exitDx=0;exitDy=0;entryX=0;entryY=0.5;entryDx=0;entryDy=0;endArrow=none;endFill=0;dashed=1;" parent="1" source="KBQtOnZJJO23YoY9Fe5M-35" target="KBQtOnZJJO23YoY9Fe5M-39" edge="1">
          <mxGeometry relative="1" as="geometry" />
        </mxCell>
        <mxCell id="KBQtOnZJJO23YoY9Fe5M-35" value="Activity-Based Trajectory&lt;div&gt;Planners&lt;/div&gt;" style="rounded=0;whiteSpace=wrap;html=1;strokeWidth=4;" parent="1" vertex="1">
          <mxGeometry x="245" y="1220" width="120" height="60" as="geometry" />
        </mxCell>
        <mxCell id="KBQtOnZJJO23YoY9Fe5M-39" value="Intended Trajectory Shall Obey Zones" style="ellipse;whiteSpace=wrap;html=1;dashed=1;" parent="1" vertex="1">
          <mxGeometry x="390" y="1220" width="130" height="60" as="geometry" />
        </mxCell>
        <mxCell id="zZAwamqaLNWORr6iWZXO-71" style="rounded=0;orthogonalLoop=1;jettySize=auto;html=1;exitX=0.5;exitY=1;exitDx=0;exitDy=0;entryX=0.5;entryY=0;entryDx=0;entryDy=0;endArrow=none;endFill=0;" edge="1" parent="1" source="KBQtOnZJJO23YoY9Fe5M-45" target="zZAwamqaLNWORr6iWZXO-69">
          <mxGeometry relative="1" as="geometry" />
        </mxCell>
        <mxCell id="KBQtOnZJJO23YoY9Fe5M-45" value="Zone-Unaware&amp;nbsp;&lt;div&gt;Trajectory Planners&lt;/div&gt;" style="rounded=0;whiteSpace=wrap;html=1;strokeWidth=4;" parent="1" vertex="1">
          <mxGeometry x="340" y="1421.25" width="120" height="60" as="geometry" />
        </mxCell>
        <mxCell id="KBQtOnZJJO23YoY9Fe5M-46" value="Trajectory&lt;div&gt;Executor&lt;/div&gt;" style="rounded=0;whiteSpace=wrap;html=1;strokeWidth=4;" parent="1" vertex="1">
          <mxGeometry x="535" y="1220" width="120" height="60" as="geometry" />
        </mxCell>
        <mxCell id="KBQtOnZJJO23YoY9Fe5M-47" value="Inner Loop Accuracy for Trajectory Control" style="ellipse;whiteSpace=wrap;html=1;dashed=1;" parent="1" vertex="1">
          <mxGeometry x="675" y="1215" width="140" height="70" as="geometry" />
        </mxCell>
        <mxCell id="KBQtOnZJJO23YoY9Fe5M-48" style="rounded=0;orthogonalLoop=1;jettySize=auto;html=1;exitX=1;exitY=0.5;exitDx=0;exitDy=0;endArrow=none;endFill=0;dashed=1;" parent="1" source="KBQtOnZJJO23YoY9Fe5M-46" target="KBQtOnZJJO23YoY9Fe5M-47" edge="1">
          <mxGeometry relative="1" as="geometry">
            <mxPoint x="280" y="1290" as="sourcePoint" />
            <mxPoint x="280" y="1330" as="targetPoint" />
          </mxGeometry>
        </mxCell>
        <mxCell id="KBQtOnZJJO23YoY9Fe5M-53" value="Route-Following Trajectory Planner" style="rounded=0;whiteSpace=wrap;html=1;strokeWidth=4;" parent="1" vertex="1">
          <mxGeometry x="200" y="1421.25" width="120" height="60" as="geometry" />
        </mxCell>
        <mxCell id="KBQtOnZJJO23YoY9Fe5M-60" style="rounded=0;orthogonalLoop=1;jettySize=auto;html=1;exitX=0.556;exitY=0.958;exitDx=0;exitDy=0;entryX=0.5;entryY=0;entryDx=0;entryDy=0;endArrow=none;endFill=0;exitPerimeter=0;dashed=1;" parent="1" source="KBQtOnZJJO23YoY9Fe5M-65" target="zZAwamqaLNWORr6iWZXO-75" edge="1">
          <mxGeometry relative="1" as="geometry">
            <mxPoint x="835" y="1680" as="targetPoint" />
          </mxGeometry>
        </mxCell>
        <mxCell id="KBQtOnZJJO23YoY9Fe5M-61" value="Imminent Zone Violation Reactive Trajectory Planner" style="rounded=0;whiteSpace=wrap;html=1;strokeWidth=4;fillColor=#dae8fc;strokeColor=#6c8ebf;" parent="1" vertex="1">
          <mxGeometry x="720" y="1461.25" width="120" height="60" as="geometry" />
        </mxCell>
        <mxCell id="KBQtOnZJJO23YoY9Fe5M-65" value="Impending Zone&lt;div&gt;Violation Reactive&lt;/div&gt;&lt;div&gt;Trajectory Planner&lt;/div&gt;" style="rounded=0;whiteSpace=wrap;html=1;strokeWidth=3;fillColor=#dae8fc;strokeColor=#6c8ebf;" parent="1" vertex="1">
          <mxGeometry x="480" y="1421.25" width="135" height="60" as="geometry" />
        </mxCell>
        <mxCell id="KBQtOnZJJO23YoY9Fe5M-71" style="rounded=0;orthogonalLoop=1;jettySize=auto;html=1;exitX=0.5;exitY=1;exitDx=0;exitDy=0;fontFamily=Helvetica;fontSize=12;fontColor=default;entryX=0.3;entryY=-0.028;entryDx=0;entryDy=0;entryPerimeter=0;" parent="1" source="KBQtOnZJJO23YoY9Fe5M-74" target="KBQtOnZJJO23YoY9Fe5M-31" edge="1">
          <mxGeometry relative="1" as="geometry">
            <mxPoint x="305" y="1210" as="targetPoint" />
          </mxGeometry>
        </mxCell>
        <mxCell id="KBQtOnZJJO23YoY9Fe5M-74" value="Flight&amp;nbsp;&lt;span style=&quot;background-color: initial;&quot;&gt;Control&lt;/span&gt;&lt;div&gt;&lt;span style=&quot;background-color: initial;&quot;&gt;Service&lt;/span&gt;&lt;/div&gt;" style="rounded=0;whiteSpace=wrap;html=1;strokeWidth=3;" parent="1" vertex="1">
          <mxGeometry x="240" y="1040" width="130" height="70" as="geometry" />
        </mxCell>
        <mxCell id="zZAwamqaLNWORr6iWZXO-2" value="Do Something about&amp;nbsp;&lt;div&gt;Imminent Zones Violations&lt;/div&gt;" style="ellipse;whiteSpace=wrap;html=1;spacingLeft=10;spacingBottom=10;spacingRight=10;spacingTop=10;strokeWidth=3;" vertex="1" parent="1">
          <mxGeometry x="420" y="863.75" width="200" height="80" as="geometry" />
        </mxCell>
        <mxCell id="zZAwamqaLNWORr6iWZXO-3" value="Do Something About occurred Zone Violations" style="ellipse;whiteSpace=wrap;html=1;spacingLeft=10;spacingBottom=10;spacingRight=10;spacingTop=10;strokeWidth=3;" vertex="1" parent="1">
          <mxGeometry x="420" y="776.25" width="200" height="80" as="geometry" />
        </mxCell>
        <mxCell id="zZAwamqaLNWORr6iWZXO-12" style="rounded=0;orthogonalLoop=1;jettySize=auto;html=1;exitX=0;exitY=0.5;exitDx=0;exitDy=0;entryX=1;entryY=0.5;entryDx=0;entryDy=0;endArrow=none;endFill=0;" edge="1" parent="1" source="zZAwamqaLNWORr6iWZXO-6" target="KBQtOnZJJO23YoY9Fe5M-27">
          <mxGeometry relative="1" as="geometry" />
        </mxCell>
        <mxCell id="zZAwamqaLNWORr6iWZXO-14" style="rounded=0;orthogonalLoop=1;jettySize=auto;html=1;exitX=0.5;exitY=0;exitDx=0;exitDy=0;entryX=0.5;entryY=1;entryDx=0;entryDy=0;spacing=10;endArrow=none;endFill=0;" edge="1" parent="1" source="zZAwamqaLNWORr6iWZXO-6" target="zZAwamqaLNWORr6iWZXO-72">
          <mxGeometry relative="1" as="geometry">
            <mxPoint x="618.2640256752243" y="556.5956364565966" as="targetPoint" />
          </mxGeometry>
        </mxCell>
        <mxCell id="zZAwamqaLNWORr6iWZXO-20" style="rounded=0;orthogonalLoop=1;jettySize=auto;html=1;exitX=1;exitY=0.5;exitDx=0;exitDy=0;entryX=0.001;entryY=0.189;entryDx=0;entryDy=0;entryPerimeter=0;" edge="1" parent="1" source="zZAwamqaLNWORr6iWZXO-6" target="zZAwamqaLNWORr6iWZXO-54">
          <mxGeometry relative="1" as="geometry" />
        </mxCell>
        <mxCell id="zZAwamqaLNWORr6iWZXO-6" value="Know About Impending and Occurring Zone Violations" style="ellipse;whiteSpace=wrap;html=1;spacingLeft=10;spacingBottom=10;spacingRight=10;spacingTop=10;strokeWidth=3;fillColor=#dae8fc;strokeColor=#000000;" vertex="1" parent="1">
          <mxGeometry x="420" y="686.25" width="200" height="80" as="geometry" />
        </mxCell>
        <mxCell id="zZAwamqaLNWORr6iWZXO-11" value="&lt;b&gt;&lt;font style=&quot;font-size: 15px;&quot;&gt;OpenUxAS&lt;/font&gt;&lt;/b&gt;" style="text;html=1;align=center;verticalAlign=middle;whiteSpace=wrap;rounded=0;" vertex="1" parent="1">
          <mxGeometry x="540" y="1080" width="60" height="30" as="geometry" />
        </mxCell>
        <mxCell id="zZAwamqaLNWORr6iWZXO-35" style="rounded=0;orthogonalLoop=1;jettySize=auto;html=1;exitX=0.5;exitY=1;exitDx=0;exitDy=0;entryX=0.5;entryY=0;entryDx=0;entryDy=0;endArrow=none;endFill=0;" edge="1" parent="1" source="zZAwamqaLNWORr6iWZXO-19" target="zZAwamqaLNWORr6iWZXO-34">
          <mxGeometry relative="1" as="geometry" />
        </mxCell>
        <mxCell id="zZAwamqaLNWORr6iWZXO-19" value="Current Linear Trajectory Zone&amp;nbsp;&lt;span style=&quot;background-color: initial;&quot;&gt;Violation Detection&lt;/span&gt;&lt;div&gt;Service&lt;/div&gt;" style="rounded=0;whiteSpace=wrap;html=1;strokeWidth=4;spacingLeft=10;spacingRight=10;fillColor=#d5e8d4;strokeColor=#82b366;" vertex="1" parent="1">
          <mxGeometry x="940" y="697.5" width="160" height="70" as="geometry" />
        </mxCell>
        <mxCell id="zZAwamqaLNWORr6iWZXO-81" style="edgeStyle=orthogonalEdgeStyle;rounded=0;orthogonalLoop=1;jettySize=auto;html=1;exitX=1;exitY=0.5;exitDx=0;exitDy=0;entryX=0.5;entryY=1;entryDx=0;entryDy=0;curved=1;" edge="1" parent="1" source="zZAwamqaLNWORr6iWZXO-21" target="zZAwamqaLNWORr6iWZXO-54">
          <mxGeometry relative="1" as="geometry" />
        </mxCell>
        <mxCell id="zZAwamqaLNWORr6iWZXO-82" style="rounded=0;orthogonalLoop=1;jettySize=auto;html=1;entryX=0.5;entryY=1;entryDx=0;entryDy=0;endArrow=none;endFill=0;" edge="1" parent="1" target="zZAwamqaLNWORr6iWZXO-63">
          <mxGeometry relative="1" as="geometry">
            <mxPoint x="1170" y="1250" as="sourcePoint" />
          </mxGeometry>
        </mxCell>
        <mxCell id="zZAwamqaLNWORr6iWZXO-21" value="Intended Trajectory Imminent Zone Violation Detector" style="rounded=0;whiteSpace=wrap;html=1;spacing=10;strokeWidth=3;fillColor=#dae8fc;strokeColor=#6c8ebf;" vertex="1" parent="1">
          <mxGeometry x="720" y="1381.25" width="120" height="60" as="geometry" />
        </mxCell>
        <mxCell id="zZAwamqaLNWORr6iWZXO-29" style="rounded=0;orthogonalLoop=1;jettySize=auto;html=1;entryX=0;entryY=0.5;entryDx=0;entryDy=0;fontFamily=Helvetica;fontSize=12;fontColor=default;endArrow=none;endFill=0;shadow=0;flowAnimation=0;strokeWidth=10.999999999999998;exitX=1;exitY=0.5;exitDx=0;exitDy=0;" edge="1" parent="1" source="KBQtOnZJJO23YoY9Fe5M-65" target="zZAwamqaLNWORr6iWZXO-28">
          <mxGeometry relative="1" as="geometry">
            <mxPoint x="660" y="1448.75" as="sourcePoint" />
            <mxPoint x="335" y="1418.75" as="targetPoint" />
          </mxGeometry>
        </mxCell>
        <mxCell id="zZAwamqaLNWORr6iWZXO-41" style="edgeStyle=orthogonalEdgeStyle;rounded=0;orthogonalLoop=1;jettySize=auto;html=1;exitX=0.5;exitY=1;exitDx=0;exitDy=0;" edge="1" parent="1" source="zZAwamqaLNWORr6iWZXO-32" target="zZAwamqaLNWORr6iWZXO-39">
          <mxGeometry relative="1" as="geometry" />
        </mxCell>
        <mxCell id="zZAwamqaLNWORr6iWZXO-32" value="&lt;div&gt;&lt;b&gt;Over-Alerting&lt;/b&gt;&lt;/div&gt;With Sufficiently Long Time Window T&lt;sub&gt;W&lt;/sub&gt;, can alert on imminent violations when vehicles will likely divert before such violations occur. Alert Rate can go up with T&lt;sub&gt;W&lt;/sub&gt;&amp;nbsp;when vehicles are near zone boundaries." style="ellipse;whiteSpace=wrap;html=1;spacingLeft=10;spacingBottom=10;spacingRight=10;spacingTop=10;strokeWidth=3;fillColor=#d5e8d4;strokeColor=#82b366;" vertex="1" parent="1">
          <mxGeometry x="1160" y="683.75" width="370" height="120" as="geometry" />
        </mxCell>
        <mxCell id="zZAwamqaLNWORr6iWZXO-34" value="Time Window&lt;div&gt;T&lt;sub&gt;W&lt;/sub&gt;&lt;/div&gt;" style="rounded=0;whiteSpace=wrap;html=1;strokeColor=#82b366;align=center;verticalAlign=middle;spacingLeft=10;spacingRight=10;spacingTop=10;spacingBottom=10;fontFamily=Helvetica;fontSize=12;fillColor=#d5e8d4;" vertex="1" parent="1">
          <mxGeometry x="960" y="812.5" width="120" height="60" as="geometry" />
        </mxCell>
        <mxCell id="zZAwamqaLNWORr6iWZXO-39" value="Service Users shall tune T&lt;sub&gt;W&lt;/sub&gt; to be appropriate for the behavior in use of the service." style="ellipse;whiteSpace=wrap;html=1;spacingLeft=10;spacingBottom=10;spacingRight=10;spacingTop=10;dashed=1;fillColor=#d5e8d4;strokeColor=#82b366;strokeWidth=3;" vertex="1" parent="1">
          <mxGeometry x="1235" y="833.75" width="220" height="90" as="geometry" />
        </mxCell>
        <mxCell id="zZAwamqaLNWORr6iWZXO-46" value="&lt;b&gt;Vehicles&lt;/b&gt;" style="rounded=0;whiteSpace=wrap;html=1;strokeColor=default;align=center;verticalAlign=middle;spacingLeft=10;spacingRight=10;spacingTop=10;spacingBottom=10;fontFamily=Helvetica;fontSize=12;fontColor=default;fillColor=default;" vertex="1" parent="1">
          <mxGeometry x="110" y="70" width="120" height="60" as="geometry" />
        </mxCell>
        <mxCell id="zZAwamqaLNWORr6iWZXO-47" value="&lt;b&gt;Zones&lt;/b&gt;&lt;div&gt;(keep-in and keep-out)&lt;/div&gt;" style="rounded=0;whiteSpace=wrap;html=1;strokeColor=default;align=center;verticalAlign=middle;spacingLeft=10;spacingRight=10;spacingTop=10;spacingBottom=10;fontFamily=Helvetica;fontSize=12;fontColor=default;fillColor=default;" vertex="1" parent="1">
          <mxGeometry x="110" y="150" width="120" height="60" as="geometry" />
        </mxCell>
        <mxCell id="zZAwamqaLNWORr6iWZXO-59" style="rounded=0;orthogonalLoop=1;jettySize=auto;html=1;exitX=1;exitY=0.5;exitDx=0;exitDy=0;endArrow=none;endFill=0;entryX=0;entryY=0.5;entryDx=0;entryDy=0;" edge="1" parent="1" source="zZAwamqaLNWORr6iWZXO-57" target="zZAwamqaLNWORr6iWZXO-2">
          <mxGeometry relative="1" as="geometry" />
        </mxCell>
        <mxCell id="zZAwamqaLNWORr6iWZXO-57" value="Zone Violation Reaction Service" style="rounded=0;whiteSpace=wrap;html=1;strokeWidth=3;fillColor=#f5f5f5;strokeColor=#666666;spacingLeft=10;spacingRight=10;spacingBottom=10;spacingTop=10;spacing=10;fontColor=#333333;" vertex="1" parent="1">
          <mxGeometry x="240" y="867.5" width="130" height="70" as="geometry" />
        </mxCell>
        <mxCell id="zZAwamqaLNWORr6iWZXO-60" style="rounded=0;orthogonalLoop=1;jettySize=auto;html=1;exitX=1;exitY=0.5;exitDx=0;exitDy=0;entryX=0;entryY=0.5;entryDx=0;entryDy=0;endArrow=none;endFill=0;" edge="1" parent="1" source="zZAwamqaLNWORr6iWZXO-58" target="zZAwamqaLNWORr6iWZXO-3">
          <mxGeometry relative="1" as="geometry" />
        </mxCell>
        <mxCell id="zZAwamqaLNWORr6iWZXO-58" value="Zone Violation Display and Logging Service" style="rounded=0;whiteSpace=wrap;html=1;strokeWidth=3;fillColor=#f5f5f5;strokeColor=#666666;spacingLeft=10;spacingRight=10;spacingBottom=10;spacingTop=10;spacing=10;fontColor=#333333;" vertex="1" parent="1">
          <mxGeometry x="240" y="780" width="130" height="70" as="geometry" />
        </mxCell>
        <mxCell id="zZAwamqaLNWORr6iWZXO-63" value="&lt;b&gt;Linear Trajectory only Approximates Planned Impending Trajectory for Small T&lt;/b&gt;&lt;sub style=&quot;font-weight: bold;&quot;&gt;W&lt;/sub&gt;&amp;nbsp;&lt;span style=&quot;background-color: initial;&quot;&gt;&amp;nbsp;&lt;/span&gt;&lt;div&gt;&lt;div&gt;Causing&lt;b style=&quot;&quot;&gt; &lt;/b&gt;Potential False Alarms When Vehicle is near zone Boundary and moving towards it.&lt;/div&gt;&lt;/div&gt;" style="ellipse;whiteSpace=wrap;html=1;spacingRight=10;spacingLeft=10;strokeWidth=3;fillColor=#dae8fc;strokeColor=#6c8ebf;" vertex="1" parent="1">
          <mxGeometry x="815" y="1020" width="300" height="135" as="geometry" />
        </mxCell>
        <mxCell id="zZAwamqaLNWORr6iWZXO-67" value="&lt;b&gt;&lt;font style=&quot;font-size: 15px;&quot;&gt;Three-Tiered Flight Control&lt;/font&gt;&lt;/b&gt;" style="text;html=1;align=center;verticalAlign=middle;whiteSpace=wrap;rounded=0;" vertex="1" parent="1">
          <mxGeometry x="560" y="1300" width="240" height="30" as="geometry" />
        </mxCell>
        <mxCell id="zZAwamqaLNWORr6iWZXO-68" style="rounded=0;orthogonalLoop=1;jettySize=auto;html=1;exitX=0.5;exitY=1;exitDx=0;exitDy=0;entryX=0.272;entryY=-0.009;entryDx=0;entryDy=0;entryPerimeter=0;" edge="1" parent="1" source="KBQtOnZJJO23YoY9Fe5M-35" target="zZAwamqaLNWORr6iWZXO-24">
          <mxGeometry relative="1" as="geometry">
            <mxPoint x="300" y="1380" as="targetPoint" />
          </mxGeometry>
        </mxCell>
        <mxCell id="zZAwamqaLNWORr6iWZXO-70" style="rounded=0;orthogonalLoop=1;jettySize=auto;html=1;exitX=0.5;exitY=1;exitDx=0;exitDy=0;endArrow=none;endFill=0;entryX=0.5;entryY=0;entryDx=0;entryDy=0;" edge="1" parent="1" source="zZAwamqaLNWORr6iWZXO-69" target="zZAwamqaLNWORr6iWZXO-73">
          <mxGeometry relative="1" as="geometry">
            <mxPoint x="400" y="1670" as="targetPoint" />
          </mxGeometry>
        </mxCell>
        <mxCell id="zZAwamqaLNWORr6iWZXO-69" value="&lt;b&gt;Can Violate Zones&lt;/b&gt;&lt;div&gt;Zone-unaware Trajectory Planners can violate zone bounaries.&lt;/div&gt;" style="ellipse;whiteSpace=wrap;html=1;spacingRight=10;spacingLeft=10;fillColor=#dae8fc;strokeColor=#6c8ebf;strokeWidth=3;" vertex="1" parent="1">
          <mxGeometry x="295" y="1510" width="210" height="60" as="geometry" />
        </mxCell>
        <mxCell id="zZAwamqaLNWORr6iWZXO-72" value="&lt;b style=&quot;forced-color-adjust: none; color: rgb(0, 0, 0); font-family: Helvetica; font-size: 12px; font-style: normal; font-variant-ligatures: normal; font-variant-caps: normal; letter-spacing: normal; orphans: 2; text-align: center; text-indent: 0px; text-transform: none; widows: 2; word-spacing: 0px; -webkit-text-stroke-width: 0px; white-space: normal; background-color: rgb(251, 251, 251); text-decoration-thickness: initial; text-decoration-style: initial; text-decoration-color: initial;&quot;&gt;Impending and Occurring Zone Violation Unawareness&lt;/b&gt;&lt;div style=&quot;text-align: left; forced-color-adjust: none; color: rgb(0, 0, 0); font-family: Helvetica; font-size: 12px; font-style: normal; font-variant-ligatures: normal; font-variant-caps: normal; font-weight: 400; letter-spacing: normal; orphans: 2; text-indent: 0px; text-transform: none; widows: 2; word-spacing: 0px; -webkit-text-stroke-width: 0px; white-space: normal; background-color: rgb(251, 251, 251); text-decoration-thickness: initial; text-decoration-style: initial; text-decoration-color: initial;&quot;&gt;&lt;span style=&quot;forced-color-adjust: none; font-size: 12px; background-color: initial;&quot;&gt;∃&lt;/span&gt;&lt;font style=&quot;forced-color-adjust: none; font-size: 10px; background-color: initial;&quot;&gt;&amp;nbsp;vehicle V, zone Z, current time TC, time window TW, future time TV where T&lt;sub style=&quot;forced-color-adjust: none;&quot;&gt;C&lt;/sub&gt;&lt;span&gt;&amp;nbsp;&lt;/span&gt;&amp;lt;= T&lt;sub style=&quot;forced-color-adjust: none;&quot;&gt;V&lt;/sub&gt;&lt;span&gt;&amp;nbsp;&lt;/span&gt;&amp;lt;= T&lt;sub style=&quot;forced-color-adjust: none;&quot;&gt;C&lt;/sub&gt;+T&lt;sub style=&quot;forced-color-adjust: none;&quot;&gt;W&lt;/sub&gt;,&amp;nbsp; probability P, and threshold probability P&lt;sub style=&quot;forced-color-adjust: none;&quot;&gt;T&lt;/sub&gt;&lt;span&gt;&amp;nbsp;&lt;/span&gt;where P &amp;gt; P&lt;/font&gt;&lt;font style=&quot;forced-color-adjust: none; background-color: initial; font-size: 10px;&quot;&gt;&lt;sub style=&quot;forced-color-adjust: none;&quot;&gt;T&lt;/sub&gt;&lt;/font&gt;&lt;font style=&quot;forced-color-adjust: none; font-size: 10px; background-color: initial;&quot;&gt;&lt;span&gt;&amp;nbsp;&lt;/span&gt;: vehicleV&lt;/font&gt;&lt;span style=&quot;forced-color-adjust: none; background-color: initial;&quot;&gt;&lt;font style=&quot;forced-color-adjust: none; font-size: 10px;&quot;&gt;iolatesZone(A,Z,T&lt;sub style=&quot;forced-color-adjust: none;&quot;&gt;V&lt;/sub&gt;,P) &amp;amp;&amp;amp; ~aware(OpenUXAS, vehicleViolatesZone(A,Z,T&lt;sub style=&quot;forced-color-adjust: none;&quot;&gt;V&lt;/sub&gt;, P) )&lt;/font&gt;&lt;/span&gt;&lt;/div&gt;" style="shape=hexagon;perimeter=hexagonPerimeter2;whiteSpace=wrap;html=1;fixedSize=1;spacing=30;" vertex="1" parent="1">
          <mxGeometry x="390" y="530" width="300" height="120" as="geometry" />
        </mxCell>
        <mxCell id="zZAwamqaLNWORr6iWZXO-73" value="&lt;b&gt;Intended Flight Trajectory Zone Violation&lt;/b&gt;&lt;div&gt;&lt;span style=&quot;background-color: initial;&quot;&gt;∃&lt;/span&gt;&lt;font style=&quot;font-size: 10px; background-color: initial;&quot;&gt;&amp;nbsp;aircraft A, flight trajectory&amp;nbsp; F&lt;sub&gt;A&lt;/sub&gt;, zone Z, current time TC, time window T&lt;sub&gt;W&lt;/sub&gt;, future time T&lt;sub&gt;V&lt;/sub&gt;&amp;nbsp;where T&lt;sub&gt;C&lt;/sub&gt;&amp;nbsp;&amp;lt;= T&lt;sub&gt;V&lt;/sub&gt;&amp;nbsp;&amp;lt;= T&lt;sub&gt;C&lt;/sub&gt;+T&lt;sub&gt;W&lt;/sub&gt;, intended trajectory C&lt;sub&gt;A&lt;/sub&gt;&amp;nbsp;of A : ~Flight Route Zone Violation &amp;amp;&amp;amp; trajectoryViolates&lt;/font&gt;&lt;span style=&quot;background-color: initial;&quot;&gt;&lt;font style=&quot;font-size: 10px;&quot;&gt;(F&lt;sub&gt;A&lt;/sub&gt;, Z,T&lt;sub&gt;V&lt;/sub&gt;)&lt;/font&gt;&lt;/span&gt;&lt;/div&gt;" style="shape=hexagon;perimeter=hexagonPerimeter2;whiteSpace=wrap;html=1;fixedSize=1;spacing=30;" vertex="1" parent="1">
          <mxGeometry x="70" y="1650" width="300" height="120" as="geometry" />
        </mxCell>
        <mxCell id="zZAwamqaLNWORr6iWZXO-75" value="The trajectory planner shall detect when a vehicle is sufficiently likely to violate a zone boundary before it is too late to plan a zone-obeying flight trajectory." style="ellipse;whiteSpace=wrap;html=1;dashed=1;spacing=20;" vertex="1" parent="1">
          <mxGeometry x="370" y="1610" width="230" height="120" as="geometry" />
        </mxCell>
        <mxCell id="zZAwamqaLNWORr6iWZXO-76" value="The trajectory planner shall react to detected impending zone violations by overriding planned flight trajectory with one that obeys zones." style="ellipse;whiteSpace=wrap;html=1;dashed=1;spacing=20;" vertex="1" parent="1">
          <mxGeometry x="365" y="1740" width="325" height="80" as="geometry" />
        </mxCell>
        <mxCell id="zZAwamqaLNWORr6iWZXO-77" style="rounded=0;orthogonalLoop=1;jettySize=auto;html=1;exitX=0.556;exitY=1.004;exitDx=0;exitDy=0;entryX=1;entryY=0;entryDx=0;entryDy=0;endArrow=none;endFill=0;exitPerimeter=0;dashed=1;" edge="1" parent="1" source="KBQtOnZJJO23YoY9Fe5M-65" target="zZAwamqaLNWORr6iWZXO-76">
          <mxGeometry relative="1" as="geometry">
            <mxPoint x="600" y="1489" as="sourcePoint" />
            <mxPoint x="550" y="1630" as="targetPoint" />
          </mxGeometry>
        </mxCell>
        <mxCell id="zZAwamqaLNWORr6iWZXO-79" value="&lt;b&gt;Flight&lt;/b&gt;&lt;div&gt;&lt;b&gt;Trajectory&lt;/b&gt;&lt;/div&gt;&lt;div&gt;&lt;b&gt;Planners&lt;/b&gt;&lt;/div&gt;" style="text;html=1;align=center;verticalAlign=middle;whiteSpace=wrap;rounded=0;" vertex="1" parent="1">
          <mxGeometry x="585" y="1526.25" width="65" height="52.5" as="geometry" />
        </mxCell>
        <mxCell id="zZAwamqaLNWORr6iWZXO-85" style="rounded=0;orthogonalLoop=1;jettySize=auto;html=1;exitX=0.5;exitY=1;exitDx=0;exitDy=0;endArrow=none;endFill=0;" edge="1" parent="1" source="zZAwamqaLNWORr6iWZXO-84">
          <mxGeometry relative="1" as="geometry">
            <mxPoint x="830" y="720" as="targetPoint" />
          </mxGeometry>
        </mxCell>
        <mxCell id="zZAwamqaLNWORr6iWZXO-84" value="&lt;b&gt;Impending Violations Alerts from linear trajectory projection are more likely to occur as T&lt;sub&gt;W&lt;/sub&gt; Increases&lt;/b&gt;" style="ellipse;whiteSpace=wrap;html=1;spacingRight=10;spacingLeft=10;strokeWidth=3;fillColor=#dae8fc;strokeColor=#6c8ebf;" vertex="1" parent="1">
          <mxGeometry x="720" y="535" width="220" height="110" as="geometry" />
        </mxCell>
        <mxCell id="zZAwamqaLNWORr6iWZXO-86" value="" style="shape=stencil(fZbdcgIhDIWfZm8zQAg/17Z9j85U606tdqz9e/tmZ0c0uJ47xP0I5JwEBl59bp8/1kNwn6fj4W39M76ctgM/DCGM++36OJ50NPDjwKvN4bh+PR6+9i/z74/n6ctp9H74nlb4nbmSKZeJCu5vngmZ6jzzNAO7cX8FVKEsBuBKrgKg9oAE8gkCbLeUhEoEQKSUDZDLeWYRKIl8MEDRmHwfyBrBG6Amyu4+kDxxMoB3jhwgYu7TVAsVkFcWCs4CTBEoF4RctKeOxHIf8IXYpikHikAIf+MNUW94AGSSaoAoFIE3AlOyeWU+p2E5S9yfQZcQILVuQOwZdJNoS9Ls3wA5u2XZTIHECqeJ9kDpSaauRiNVcAY1QhdBzeLBli5WazpkSsBLV25uRaqWRyFawTQzRRIQYirJzq5atkBqLfouwqUxLBepthWb10vrWZY6UOAeyKCCtDV625mm9gmUC4Wc3VLJMMIE1BsA2FW9JraVlQB7n3c9oMKhCLEvIM1zBPZ25/umNQ1tVEC2G+fFCC8g398O2hNQuQlVu752DBfA+q0ptnqO5JFmeuIuo9DY7KjY71UxdJV4EntifPWorW++R/dC4t7V3DlIB5cHx2bc7eb3yvX//QNFp+bHDT/+Aw==);lineShape=1;strokeColor=default;" vertex="1" parent="1">
          <mxGeometry x="1318.5660936038084" y="396.26971147464474" width="7.188522726331449" height="7.17728648670415" as="geometry" />
        </mxCell>
        <mxCell id="zZAwamqaLNWORr6iWZXO-92" value="Wing Leader&lt;div&gt;as Client&lt;/div&gt;" style="rounded=0;whiteSpace=wrap;html=1;" vertex="1" parent="1">
          <mxGeometry x="85" y="683.75" width="120" height="60" as="geometry" />
        </mxCell>
        <mxCell id="zZAwamqaLNWORr6iWZXO-93" value="Ground Station&lt;div&gt;as Client&lt;/div&gt;" style="rounded=0;whiteSpace=wrap;html=1;" vertex="1" parent="1">
          <mxGeometry x="82.5" y="752.5" width="120" height="60" as="geometry" />
        </mxCell>
        <mxCell id="zZAwamqaLNWORr6iWZXO-98" value="&lt;b&gt;&lt;font style=&quot;font-size: 15px;&quot;&gt;World&lt;/font&gt;&lt;/b&gt;" style="text;html=1;align=center;verticalAlign=middle;whiteSpace=wrap;rounded=0;" vertex="1" parent="1">
          <mxGeometry x="445" y="220" width="60" height="30" as="geometry" />
        </mxCell>
        <mxCell id="zZAwamqaLNWORr6iWZXO-99" value="&lt;b&gt;&lt;font style=&quot;font-size: 15px;&quot;&gt;World&lt;/font&gt;&lt;/b&gt;" style="text;html=1;align=center;verticalAlign=middle;whiteSpace=wrap;rounded=0;" vertex="1" parent="1">
          <mxGeometry x="95" y="460" width="60" height="30" as="geometry" />
        </mxCell>
      </root>
    </mxGraphModel>
  </diagram>
</mxfile>
